<?xml version="1.0" encoding="UTF-8"?>
<svg width="500px" height="104px" viewBox="0 0 500 104" version="1.1" xmlns="http://www.w3.org/2000/svg" xmlns:xlink="http://www.w3.org/1999/xlink">
    <!-- Generator: Sketch 55.1 (78136) - https://sketchapp.com -->
    <title>Group 4</title>
    <desc>Created with Sketch.</desc>
    <g id="Page-1" stroke="none" stroke-width="1" fill="none" fill-rule="evenodd">
        <g id="Home-Copy" transform="translate(-267.000000, -440.000000)" fill="#000000">
            <g id="Group-4" transform="translate(267.000000, 440.000000)">
                <path d="M100.508906,11.1141531 L89.474012,11.1141531 L89.474012,91.939282 L100.508906,91.939282 L100.508906,103.053435 L0,103.053435 L0,0 L100.508906,0 L100.508906,11.1141531 Z M78.4391181,82.7771099 L78.4391181,19.9318433 L56.6390899,19.9318433 L56.6390899,29.9018778 C55.0819096,26.5413096 52.6907025,23.9085904 49.4649734,22.0042186 C46.2394919,20.0998468 42.4393485,19.1476609 38.0645432,19.1476609 C33.0965145,19.1476609 28.6103407,20.4358537 24.606269,23.0124887 C20.6021973,25.5888745 17.4509615,29.3043936 15.152314,34.1587968 C12.8536665,39.0132001 11.7043428,44.7263155 11.7043428,51.2983924 C11.7043428,57.8704692 12.8536665,63.6022794 15.152314,68.4940721 C17.4509615,73.3856156 20.6021973,77.1198295 24.606269,79.6964645 C28.6103407,82.2728502 33.0965145,83.5612923 38.0645432,83.5612923 C42.4393485,83.5612923 46.2394919,82.6091064 49.4649734,80.7047346 C52.6907025,78.8001136 55.0819096,76.1676436 56.6390899,72.8068262 L56.6390899,82.7771099 L78.4391181,82.7771099 Z M45.2940964,38.4157159 C41.883248,38.4157159 39.1213072,39.5546 37.0080266,41.8323683 C34.8947459,44.1101366 33.8379818,47.265561 33.8379818,51.2983924 C33.8379818,55.4060027 34.8947459,58.5985674 37.0080266,60.8763356 C39.1213072,63.1543532 41.883248,64.2932373 45.2940964,64.2932373 C48.5567008,64.2932373 51.2632048,63.1356584 53.4136083,60.8205006 C55.5640118,58.5053429 56.6390899,55.3312237 56.6390899,51.2983924 C56.6390899,47.34034 55.5640118,44.2036103 53.4136083,41.8884526 C51.2632048,39.5732948 48.5567008,38.4157159 45.2940964,38.4157159 Z" id="Fill-1"></path>
                <path d="M380.733129,11.1141531 L391.857506,11.1141531 L391.857506,91.939282 L380.733129,91.939282 L380.733129,103.053435 L111.959288,103.053435 L111.959288,0 L380.733129,0 L380.733129,11.1141531 Z M161.831626,57.9078587 C161.308463,60.0737077 160.355444,61.735297 158.972568,62.8928759 C157.589693,64.0504548 155.814383,64.6292443 153.646888,64.6292443 C150.955981,64.6292443 148.769526,63.5090549 147.087771,61.2684268 C145.405768,59.0280481 144.565015,55.7046202 144.565015,51.2983924 C144.565015,46.9669435 145.405768,43.6622104 147.087771,41.3844421 C148.769526,39.1064246 150.955981,37.9675404 153.646888,37.9675404 C155.814383,37.9675404 157.589693,38.5463299 158.972568,39.7039088 C160.355444,40.8614877 161.308463,42.5233262 161.831626,44.688926 L185.152901,44.688926 C183.732853,36.6980423 180.257077,30.4432777 174.725575,25.9251307 C169.194322,21.4067344 162.355038,19.1476609 154.207473,19.1476609 C148.003368,19.1476609 142.472115,20.4358537 137.613464,23.0124887 C132.754813,25.5888745 128.980159,29.3043936 126.289003,34.1587968 C123.598096,39.0132001 122.252642,44.7263155 122.252642,51.2983924 C122.252642,57.8704692 123.598096,63.6022794 126.289003,68.4940721 C128.980159,73.3856156 132.736102,77.1198295 137.557331,79.6964645 C142.37856,82.2728502 147.928524,83.5612923 154.207473,83.5612923 C162.355038,83.5612923 169.194322,81.2835241 174.725575,76.7277383 C180.256828,72.1722017 183.732603,65.8989916 185.152901,57.9078587 L161.831626,57.9078587 Z M232.132003,60.2604059 C231.608591,61.9780795 230.636861,63.3597461 229.216812,64.4051565 C227.796515,65.4508162 226.002743,65.9735214 223.834999,65.9735214 C218.004617,65.9735214 214.902565,62.426255 214.528842,55.3312237 L256.124633,55.3312237 C256.498855,53.4639921 256.685967,51.7465678 256.685967,50.178203 C256.685967,43.9795226 255.358725,38.5276351 252.706738,33.8227899 C250.052255,29.1176953 246.333984,25.49565 241.550177,22.9564045 C236.76637,20.417159 231.235117,19.1476609 224.956168,19.1476609 C218.752064,19.1476609 213.220811,20.4358537 208.36216,23.0124887 C203.503509,25.5888745 199.728854,29.3043936 197.037948,34.1587968 C194.347041,39.0132001 193.001587,44.7263155 193.001587,51.2983924 C193.001587,57.8704692 194.347041,63.6022794 197.037948,68.4940721 C199.728854,73.3856156 203.484798,77.1198295 208.306026,79.6964645 C213.127255,82.2728502 218.677469,83.5612923 224.956168,83.5612923 C230.113698,83.5612923 234.860332,82.5530222 239.195571,80.5364819 C243.53106,78.5201908 247.118852,75.7381629 249.959947,72.1908965 C252.799046,68.6433808 254.630239,64.6666338 255.453528,60.2604059 L232.132003,60.2604059 Z M373.518126,82.7771099 L373.518126,46.2572909 C373.518126,37.8930107 371.292751,31.3209339 366.846992,26.5413096 C362.398738,21.7614361 356.214093,19.3717486 348.290562,19.3717486 C343.804886,19.3717486 339.730854,20.4732432 336.068466,22.6764818 C332.406079,24.879471 329.489641,27.8108077 327.324142,31.4702426 C325.305837,27.58672 322.501666,24.5995483 318.914123,22.508229 C315.326579,20.417159 311.177703,19.3717486 306.467493,19.3717486 C302.134001,19.3717486 298.359347,20.286545 295.143531,22.1161378 C291.93021,23.9459799 289.425416,26.4291411 287.631645,29.5658708 L287.631645,19.9318433 L265.545053,19.9318433 L265.545053,82.7771099 L287.631645,82.7771099 L287.631645,49.3940205 C287.631645,45.8838944 288.584664,43.1766454 290.490702,41.2722736 C292.39674,39.3679018 294.993842,38.4157159 298.284502,38.4157159 C301.422979,38.4157159 303.927772,39.3492071 305.796388,41.2161894 C307.665004,43.0834209 308.598065,45.6971962 308.598065,49.0580136 L308.598065,82.7771099 L330.574885,82.7771099 L330.574885,49.3940205 C330.574885,45.8838944 331.527904,43.1766454 333.433942,41.2722736 C335.339981,39.3679018 337.937082,38.4157159 341.225248,38.4157159 C344.366219,38.4157159 346.868518,39.3492071 348.737134,41.2161894 C350.608245,43.0834209 351.541305,45.6971962 351.541305,49.0580136 L351.541305,82.7771099 L373.518126,82.7771099 Z M234.262325,46.1453716 C234.33692,42.9338629 233.477456,40.5067859 231.683435,38.8638914 C229.889414,37.2207475 227.647075,36.3991756 224.956168,36.3991756 C222.040978,36.3991756 219.667661,37.2207475 217.836467,38.8638914 C216.005024,40.5067859 214.939987,42.9338629 214.641109,46.1453716 L234.262325,46.1453716 Z" id="Fill-2"></path>
                <polygon id="Fill-3" points="500 103.053435 453.657913 103.053435 489.033045 19.9318433 464.937226 19.9318433 452.66673 55.107136 439.402593 19.9318433 415.196096 19.9318433 441.060303 80.0885557 430.327001 103.053435 405.852417 103.053435 405.852417 0 500 0"></polygon>
            </g>
        </g>
    </g>
</svg>