<?xml version="1.0" encoding="UTF-8"?>
<svg width="500px" height="31px" viewBox="0 0 500 31" version="1.1" xmlns="http://www.w3.org/2000/svg" xmlns:xlink="http://www.w3.org/1999/xlink">
    <!-- Generator: Sketch 55.1 (78136) - https://sketchapp.com -->
    <title>Group 20</title>
    <desc>Created with Sketch.</desc>
    <g id="Page-1" stroke="none" stroke-width="1" fill="none" fill-rule="evenodd">
        <g id="Home-Copy" transform="translate(-267.000000, -560.000000)" fill="#000000">
            <g id="Group-20" transform="translate(267.000000, 560.865140)">
                <path d="M10.2808235,0 C12.0824493,0 13.6931711,0.365845388 15.1129887,1.09726047 C16.5325517,1.82895125 17.6879035,2.8625265 18.579044,4.19853761 C19.4699299,5.53427303 20.0624963,7.09276887 20.3562341,8.87402512 L13.4826674,8.87402512 C13.1693301,8.13185799 12.7238872,7.55400424 12.146084,7.14046386 C11.5685354,6.72719918 10.9074981,6.52042899 10.1634811,6.52042899 C9.06667323,6.52042899 8.20022305,6.96567413 7.56387596,7.85616441 C6.92727434,8.74693038 6.6091008,9.94481901 6.6091008,11.4503817 C6.6091008,12.9559443 6.92727434,14.1541087 7.56387596,15.044599 C8.20022305,15.9350892 9.06667323,16.3806101 10.1634811,16.3806101 C10.9074981,16.3806101 11.5685354,16.1738399 12.146084,15.7602995 C12.7238872,15.3467591 13.1693301,14.7689054 13.4826674,14.0267382 L20.3562341,14.0267382 C20.0624963,15.8079945 19.4699299,17.3664903 18.579044,18.7025014 C17.6879035,20.0382369 16.5325517,21.0720878 15.1129887,21.8035029 C13.6931711,22.5351937 12.0824493,22.9007634 10.2808235,22.9007634 C8.18545979,22.9007634 6.36423444,22.4185753 4.81740195,21.4536477 C3.27031493,20.4889959 2.08060042,19.1369945 1.24851298,17.3981951 C0.416170992,15.6593956 0,13.6768831 0,11.4503817 C0,9.22388028 0.416170992,7.24136771 1.24851298,5.50256827 C2.08060042,3.76376883 3.27031493,2.41204318 4.81740195,1.44711563 C6.36423444,0.482463774 8.18545979,0 10.2808235,0 Z" id="Fill-1"></path>
                <path d="M38.1994234,0 C40.296477,0 42.2155278,0.488191393 43.9560305,1.46484722 C45.6968058,2.44123 47.0755783,3.80095771 48.0926207,5.54403033 C49.1096631,7.28710296 49.6183206,9.250517 49.6183206,11.4345455 C49.6183206,13.618574 49.1096631,15.5822611 48.0926207,17.3253337 C47.0755783,19.0681333 45.6913539,20.4333217 43.9402201,21.420353 C42.1890863,22.4073842 40.2754874,22.9007634 38.1994234,22.9007634 C36.1020971,22.9007634 34.1781397,22.4073842 32.4270059,21.420353 C30.6758721,20.4333217 29.2864684,19.0681333 28.2587949,17.3253337 C27.2311214,15.5822611 26.7175573,13.618574 26.7175573,11.4345455 C26.7175573,9.250517 27.2311214,7.28710296 28.2587949,5.54403033 C29.2864684,3.80095771 30.6758721,2.44123 32.4270059,1.46484722 C34.1781397,0.488191393 36.1020971,0 38.1994234,0 Z M38.1994234,6.45761445 C36.7942093,6.45761445 35.7141981,6.90375804 34.959117,7.79631825 C34.2043086,8.68887846 33.8267681,9.90171189 33.8267681,11.4345455 C33.8267681,12.9466282 34.2043086,14.1488132 34.959117,15.0413734 C35.7141981,15.9339336 36.7942093,16.3803502 38.1994234,16.3803502 C39.5833752,16.3803502 40.6530279,15.9339336 41.408109,15.0413734 C42.1629174,14.1488132 42.5404579,12.9466282 42.5404579,11.4345455 C42.5404579,9.90171189 42.1629174,8.68887846 41.408109,7.79631825 C40.6530279,6.90375804 39.5833752,6.45761445 38.1994234,6.45761445 Z" id="Fill-2"></path>
                <polygon id="Fill-3" points="81.4249364 22.9007634 74.7694192 22.9007634 67.7242195 11.3857584 67.7242195 22.9007634 61.0687023 22.9007634 61.0687023 0 67.7242195 0 74.7694192 11.7090151 74.7694192 0 81.4249364 0"></polygon>
                <path d="M99.3393476,0 C101.140974,0 102.751695,0.365845388 104.171513,1.09726047 C105.591076,1.82895125 106.746428,2.8625265 107.637568,4.19853761 C108.528454,5.53427303 109.12102,7.09276887 109.414758,8.87402512 L102.541192,8.87402512 C102.227854,8.13185799 101.782411,7.55400424 101.204608,7.14046386 C100.62706,6.72719918 99.9660222,6.52042899 99.2220052,6.52042899 C98.1251974,6.52042899 97.2587472,6.96567413 96.6224001,7.85616441 C95.9857985,8.74693038 95.667625,9.94481901 95.667625,11.4503817 C95.667625,12.9559443 95.9857985,14.1541087 96.6224001,15.044599 C97.2587472,15.9350892 98.1251974,16.3806101 99.2220052,16.3806101 C99.9660222,16.3806101 100.62706,16.1738399 101.204608,15.7602995 C101.782411,15.3467591 102.227854,14.7689054 102.541192,14.0267382 L109.414758,14.0267382 C109.12102,15.8079945 108.528454,17.3664903 107.637568,18.7025014 C106.746428,20.0382369 105.591076,21.0720878 104.171513,21.8035029 C102.751695,22.5351937 101.140974,22.9007634 99.3393476,22.9007634 C97.243984,22.9007634 95.4227586,22.4185753 93.8759261,21.4536477 C92.3288391,20.4889959 91.1391246,19.1369945 90.3070371,17.3981951 C89.4746952,15.6593956 89.0585242,13.6768831 89.0585242,11.4503817 C89.0585242,9.22388028 89.4746952,7.24136771 90.3070371,5.50256827 C91.1391246,3.76376883 92.3288391,2.41204318 93.8759261,1.44711563 C95.4227586,0.482463774 97.243984,0 99.3393476,0 Z" id="Fill-4"></path>
                <path d="M131.433315,22.9007634 L127.455265,14.6850518 L127.455265,22.9007634 L120.86514,22.9007634 L120.86514,0 L130.661578,0 C132.363516,0 133.818242,0.328863967 135.025497,0.986591901 C136.232752,1.64431984 137.138,2.53923355 137.741756,3.67133303 C138.345255,4.80343252 138.647004,6.0810396 138.647004,7.50415426 C138.647004,9.03520807 138.256248,10.3938396 137.474478,11.5797685 C136.692707,12.7656974 135.569572,13.6174354 134.105071,14.1349826 L138.676845,22.9007634 L131.433315,22.9007634 Z M127.455265,9.89788022 L130.067854,9.89788022 C130.701193,9.89788022 131.176069,9.74143853 131.492739,9.42883553 C131.809409,9.11623253 131.967615,8.62560001 131.967615,7.95693798 C131.967615,7.3533198 131.804521,6.87894825 131.477819,6.53382332 C131.151374,6.18897875 130.681386,6.0162761 130.067854,6.0162761 L127.455265,6.0162761 L127.455265,9.89788022 Z" id="Fill-5"></path>
                <polygon id="Fill-6" points="151.620547 5.69301936 151.620547 8.53924869 158.143575 8.53924869 158.143575 13.9409725 151.620547 13.9409725 151.620547 17.1755024 159.033079 17.1755024 159.033079 22.9007634 145.038168 22.9007634 145.038168 0 159.033079 0 159.033079 5.69301936"></polygon>
                <polygon id="Fill-7" points="188.295165 0 188.295165 5.69301936 182.676809 5.69301936 182.676809 22.9007634 176.042254 22.9007634 176.042254 5.69301936 170.483461 5.69301936 170.483461 0"></polygon>
                <polygon id="Fill-8" points="203.783397 5.69301936 203.783397 8.53924869 210.306425 8.53924869 210.306425 13.9409725 203.783397 13.9409725 203.783397 17.1755024 211.195929 17.1755024 211.195929 22.9007634 197.201018 22.9007634 197.201018 0 211.195929 0 211.195929 5.69301936"></polygon>
                <path d="M227.285379,17.8117048 C227.817518,18.5058418 228.237356,19.3116392 228.545467,20.2293274 C228.853578,21.1472458 229.007634,22.0651642 229.007634,22.9828524 C229.007634,24.7737948 228.391411,26.2679734 227.159255,27.4656187 C225.927098,28.6632639 224.022568,29.2620865 221.445952,29.2620865 L221.445952,26.6430146 C222.258271,26.6430146 222.846274,26.5085615 223.210536,26.2401159 C223.574511,25.97144 223.756498,25.4340882 223.756498,24.6282908 L223.756498,24.2587751 L220.101781,24.2587751 L220.101781,17.8117048 L227.285379,17.8117048 Z" id="Fill-9"></path>
                <path d="M250.738582,0 C252.539399,0 254.150589,0.365845388 255.570881,1.09726047 C256.991172,1.82895125 258.146749,2.8625265 259.037613,4.19853761 C259.928476,5.53427303 260.518992,7.09276887 260.814249,8.87402512 L253.939327,8.87402512 C253.626252,8.13185799 253.180821,7.55400424 252.603032,7.14046386 C252.025243,6.72719918 251.365241,6.52042899 250.621242,6.52042899 C249.524462,6.52042899 248.658033,6.96567413 248.021702,7.85616441 C247.385116,8.74693038 247.066951,9.94481901 247.066951,11.4503817 C247.066951,12.9559443 247.385116,14.1541087 248.021702,15.044599 C248.658033,15.9350892 249.524462,16.3806101 250.621242,16.3806101 C251.365241,16.3806101 252.025243,16.1738399 252.603032,15.7602995 C253.180821,15.3467591 253.626252,14.7689054 253.939327,14.0267382 L260.814249,14.0267382 C260.518992,15.8079945 259.928476,17.3664903 259.037613,18.7025014 C258.146749,20.0382369 256.991172,21.0720878 255.570881,21.8035029 C254.150589,22.5351937 252.539399,22.9007634 250.738582,22.9007634 C248.64327,22.9007634 246.822091,22.4185753 245.275297,21.4536477 C243.728248,20.4889959 242.538564,19.1369945 241.706242,17.3981951 C240.874176,15.6593956 240.458015,13.6768831 240.458015,11.4503817 C240.458015,9.22388028 240.874176,7.24136771 241.706242,5.50256827 C242.538564,3.76376883 243.728248,2.41204318 245.275297,1.44711563 C246.822091,0.482463774 248.64327,0 250.738582,0 Z" id="Fill-10"></path>
                <path d="M282.107281,19.4397014 L275.116387,19.4397014 L274.079177,22.9007634 L267.175573,22.9007634 L274.849382,0 L282.433334,0 L290.076336,22.9007634 L283.14449,22.9007634 L282.107281,19.4397014 Z M280.507822,14.0379776 L278.61055,7.66592281 L276.715846,14.0379776 L280.507822,14.0379776 Z" id="Fill-11"></path>
                <polygon id="Fill-12" points="303.539788 17.4665176 309.160305 17.4665176 309.160305 22.9007634 297.709924 22.9007634 297.709924 0 303.539788 0"></polygon>
                <path d="M330.891896,0 C332.694099,0 334.30539,0.365845388 335.723224,1.09726047 C337.143604,1.82895125 338.299254,2.8625265 339.190173,4.19853761 C340.081093,5.53427303 340.67419,7.09276887 340.966921,8.87402512 L334.094115,8.87402512 C333.78102,8.13185799 333.335561,7.55400424 332.757736,7.14046386 C332.179911,6.72719918 331.518085,6.52042899 330.774804,6.52042899 C329.6777,6.52042899 328.812236,6.96567413 328.175865,7.85616441 C327.539494,8.74693038 327.221308,9.94481901 327.221308,11.4503817 C327.221308,12.9559443 327.539494,14.1541087 328.175865,15.044599 C328.812236,15.9350892 329.6777,16.3806101 330.774804,16.3806101 C331.518085,16.3806101 332.179911,16.1738399 332.757736,15.7602995 C333.335561,15.3467591 333.78102,14.7689054 334.094115,14.0267382 L340.966921,14.0267382 C340.67419,15.8079945 340.081093,17.3664903 339.190173,18.7025014 C338.299254,20.0382369 337.143604,21.0720878 335.723224,21.8035029 C334.30539,22.5351937 332.694099,22.9007634 330.891896,22.9007634 C328.796963,22.9007634 326.974397,22.4185753 325.429288,21.4536477 C323.881634,20.4889959 322.690347,19.1369945 321.857974,17.3981951 C321.025601,15.6593956 320.610687,13.6768831 320.610687,11.4503817 C320.610687,9.22388028 321.025601,7.24136771 321.857974,5.50256827 C322.690347,3.76376883 323.881634,2.41204318 325.429288,1.44711563 C326.974397,0.482463774 328.796963,0 330.891896,0 Z" id="Fill-13"></path>
                <path d="M356.150569,0 L356.150569,12.7796198 C356.150569,13.8259646 356.354905,14.6532682 356.761115,15.2618083 C357.169787,15.8703484 357.827109,16.1746184 358.735543,16.1746184 C359.643977,16.1746184 360.318532,15.8703484 360.751823,15.2618083 C361.187576,14.6532682 361.406683,13.8259646 361.406683,12.7796198 L361.406683,0 L367.684478,0 L367.684478,12.7796198 C367.684478,14.9361616 367.288116,16.7778838 366.492928,18.3047864 C365.695279,19.8314114 364.607128,20.979087 363.223551,21.7478131 C361.842436,22.5165391 360.298837,22.9007634 358.595216,22.9007634 C356.889133,22.9007634 355.38,22.5165391 354.062894,21.7478131 C352.745788,20.979087 351.719184,19.8366862 350.98062,18.3206107 C350.242056,16.8045352 349.872774,14.9575382 349.872774,12.7796198 L349.872774,0 L356.150569,0 Z" id="Fill-14"></path>
                <polygon id="Fill-15" points="387.509254 17.4665176 393.129771 17.4665176 393.129771 22.9007634 381.679389 22.9007634 381.679389 0 387.509254 0"></polygon>
                <path d="M415.695067,19.4397014 L408.704173,19.4397014 L407.666963,22.9007634 L400.763359,22.9007634 L408.437168,0 L416.021121,0 L423.664122,22.9007634 L416.732277,22.9007634 L415.695067,19.4397014 Z M414.095608,14.0379776 L412.198336,7.66592281 L410.303632,14.0379776 L414.095608,14.0379776 Z" id="Fill-16"></path>
                <polygon id="Fill-17" points="447.83715 0 447.83715 5.69301936 442.217581 5.69301936 442.217581 22.9007634 435.585453 22.9007634 435.585453 5.69301936 430.025445 5.69301936 430.025445 0"></polygon>
                <polygon id="Fill-18" points="463.325518 5.69301936 463.325518 8.53924869 469.84894 8.53924869 469.84894 13.9409725 463.325518 13.9409725 463.325518 17.1755024 470.737913 17.1755024 470.737913 22.9007634 456.743003 22.9007634 456.743003 0 470.737913 0 470.737913 5.69301936"></polygon>
                <path d="M500,11.3857584 C500,13.563606 499.539717,15.5258557 498.61915,17.2725075 C497.698583,19.0191592 496.381587,20.3937714 494.673483,21.3966242 C492.962719,22.3991967 490.972592,22.9007634 488.700441,22.9007634 L479.643766,22.9007634 L479.643766,0 L488.700441,0 C490.972592,0 492.962719,0.48530565 494.673483,1.45563659 C496.381587,2.42596752 497.698583,3.77366496 498.61915,5.49872889 C499.539717,7.22379282 500,9.18632288 500,11.3857584 Z M488.085843,16.4961867 C489.621008,16.4961867 490.839562,16.054337 491.741504,15.1700771 C492.640786,14.2860974 493.090427,13.024471 493.090427,11.3857584 C493.090427,9.7467654 492.640786,8.48541929 491.741504,7.60115931 C490.839562,6.7171797 489.621008,6.27504971 488.085843,6.27504971 L486.460218,6.27504971 L486.460218,16.4961867 L488.085843,16.4961867 Z" id="Fill-19"></path>
            </g>
        </g>
    </g>
</svg>